<svg xmlns="http://www.w3.org/2000/svg" width="300" height="300" viewBox="0 0 300 300">
<rect width="300" height="300" fill="#0a1224"/>
<rect x="0.000" y="0.000" width="23.100" height="23.100" fill="rgb(15,43,94)"/>
<rect x="25.000" y="0.000" width="23.100" height="23.100" fill="rgb(12,28,72)"/>
<rect x="50.000" y="0.000" width="23.100" height="23.100" fill="rgb(13,32,78)"/>
<rect x="75.000" y="0.000" width="23.100" height="23.100" fill="rgb(12,29,74)"/>
<rect x="100.000" y="0.000" width="23.100" height="23.100" fill="rgb(14,38,86)"/>
<rect x="125.000" y="0.000" width="23.100" height="23.100" fill="rgb(13,36,82)"/>
<rect x="150.000" y="0.000" width="23.100" height="23.100" fill="rgb(15,43,94)"/>
<rect x="175.000" y="0.000" width="23.100" height="23.100" fill="rgb(12,28,71)"/>
<rect x="200.000" y="0.000" width="23.100" height="23.100" fill="rgb(17,50,104)"/>
<rect x="225.000" y="0.000" width="23.100" height="23.100" fill="rgb(16,48,100)"/>
<rect x="250.000" y="0.000" width="23.100" height="23.100" fill="rgb(15,43,93)"/>
<rect x="275.000" y="0.000" width="23.100" height="23.100" fill="rgb(15,41,90)"/>
<rect x="0.000" y="25.000" width="23.100" height="23.100" fill="rgb(11,23,64)"/>
<rect x="25.000" y="25.000" width="23.100" height="23.100" fill="rgb(14,39,87)"/>
<rect x="50.000" y="25.000" width="23.100" height="23.100" fill="rgb(17,50,103)"/>
<rect x="75.000" y="25.000" width="23.100" height="23.100" fill="rgb(29,105,183)"/>
<rect x="100.000" y="25.000" width="23.100" height="23.100" fill="rgb(226,139,36)"/>
<rect x="125.000" y="25.000" width="23.100" height="23.100" fill="rgb(10,20,61)"/>
<rect x="150.000" y="25.000" width="23.100" height="23.100" fill="rgb(13,32,78)"/>
<rect x="175.000" y="25.000" width="23.100" height="23.100" fill="rgb(15,41,90)"/>
<rect x="200.000" y="25.000" width="23.100" height="23.100" fill="rgb(14,38,86)"/>
<rect x="225.000" y="25.000" width="23.100" height="23.100" fill="rgb(12,28,71)"/>
<rect x="250.000" y="25.000" width="23.100" height="23.100" fill="rgb(16,47,99)"/>
<rect x="275.000" y="25.000" width="23.100" height="23.100" fill="rgb(14,38,85)"/>
<rect x="0.000" y="50.000" width="23.100" height="23.100" fill="rgb(17,50,103)"/>
<rect x="25.000" y="50.000" width="23.100" height="23.100" fill="rgb(13,34,80)"/>
<rect x="50.000" y="50.000" width="23.100" height="23.100" fill="rgb(12,30,74)"/>
<rect x="75.000" y="50.000" width="23.100" height="23.100" fill="rgb(132,156,114)"/>
<rect x="100.000" y="50.000" width="23.100" height="23.100" fill="rgb(226,143,36)"/>
<rect x="125.000" y="50.000" width="23.100" height="23.100" fill="rgb(14,37,84)"/>
<rect x="150.000" y="50.000" width="23.100" height="23.100" fill="rgb(14,37,84)"/>
<rect x="175.000" y="50.000" width="23.100" height="23.100" fill="rgb(14,39,87)"/>
<rect x="200.000" y="50.000" width="23.100" height="23.100" fill="rgb(147,162,103)"/>
<rect x="225.000" y="50.000" width="23.100" height="23.100" fill="rgb(230,193,40)"/>
<rect x="250.000" y="50.000" width="23.100" height="23.100" fill="rgb(12,29,73)"/>
<rect x="275.000" y="50.000" width="23.100" height="23.100" fill="rgb(11,26,68)"/>
<rect x="0.000" y="75.000" width="23.100" height="23.100" fill="rgb(15,40,89)"/>
<rect x="25.000" y="75.000" width="23.100" height="23.100" fill="rgb(11,23,64)"/>
<rect x="50.000" y="75.000" width="23.100" height="23.100" fill="rgb(16,47,99)"/>
<rect x="75.000" y="75.000" width="23.100" height="23.100" fill="rgb(228,169,38)"/>
<rect x="100.000" y="75.000" width="23.100" height="23.100" fill="rgb(230,200,40)"/>
<rect x="125.000" y="75.000" width="23.100" height="23.100" fill="rgb(13,32,77)"/>
<rect x="150.000" y="75.000" width="23.100" height="23.100" fill="rgb(12,29,72)"/>
<rect x="175.000" y="75.000" width="23.100" height="23.100" fill="rgb(16,46,98)"/>
<rect x="200.000" y="75.000" width="23.100" height="23.100" fill="rgb(227,161,37)"/>
<rect x="225.000" y="75.000" width="23.100" height="23.100" fill="rgb(176,176,80)"/>
<rect x="250.000" y="75.000" width="23.100" height="23.100" fill="rgb(15,40,89)"/>
<rect x="275.000" y="75.000" width="23.100" height="23.100" fill="rgb(16,48,101)"/>
<rect x="0.000" y="100.000" width="23.100" height="23.100" fill="rgb(11,23,64)"/>
<rect x="25.000" y="100.000" width="23.100" height="23.100" fill="rgb(13,35,82)"/>
<rect x="50.000" y="100.000" width="23.100" height="23.100" fill="rgb(16,46,98)"/>
<rect x="75.000" y="100.000" width="23.100" height="23.100" fill="rgb(226,140,36)"/>
<rect x="100.000" y="100.000" width="23.100" height="23.100" fill="rgb(70,128,160)"/>
<rect x="125.000" y="100.000" width="23.100" height="23.100" fill="rgb(12,30,75)"/>
<rect x="150.000" y="100.000" width="23.100" height="23.100" fill="rgb(11,23,64)"/>
<rect x="175.000" y="100.000" width="23.100" height="23.100" fill="rgb(15,42,91)"/>
<rect x="200.000" y="100.000" width="23.100" height="23.100" fill="rgb(222,92,32)"/>
<rect x="225.000" y="100.000" width="23.100" height="23.100" fill="rgb(68,127,161)"/>
<rect x="250.000" y="100.000" width="23.100" height="23.100" fill="rgb(10,21,61)"/>
<rect x="275.000" y="100.000" width="23.100" height="23.100" fill="rgb(14,39,87)"/>
<rect x="0.000" y="125.000" width="23.100" height="23.100" fill="rgb(13,32,77)"/>
<rect x="25.000" y="125.000" width="23.100" height="23.100" fill="rgb(17,50,104)"/>
<rect x="50.000" y="125.000" width="23.100" height="23.100" fill="rgb(11,27,70)"/>
<rect x="75.000" y="125.000" width="23.100" height="23.100" fill="rgb(224,112,34)"/>
<rect x="100.000" y="125.000" width="23.100" height="23.100" fill="rgb(23,80,147)"/>
<rect x="125.000" y="125.000" width="23.100" height="23.100" fill="rgb(16,49,102)"/>
<rect x="150.000" y="125.000" width="23.100" height="23.100" fill="rgb(13,33,79)"/>
<rect x="175.000" y="125.000" width="23.100" height="23.100" fill="rgb(14,40,88)"/>
<rect x="200.000" y="125.000" width="23.100" height="23.100" fill="rgb(221,71,31)"/>
<rect x="225.000" y="125.000" width="23.100" height="23.100" fill="rgb(21,68,130)"/>
<rect x="250.000" y="125.000" width="23.100" height="23.100" fill="rgb(10,21,62)"/>
<rect x="275.000" y="125.000" width="23.100" height="23.100" fill="rgb(17,50,104)"/>
<rect x="0.000" y="150.000" width="23.100" height="23.100" fill="rgb(12,31,76)"/>
<rect x="25.000" y="150.000" width="23.100" height="23.100" fill="rgb(16,46,97)"/>
<rect x="50.000" y="150.000" width="23.100" height="23.100" fill="rgb(21,69,131)"/>
<rect x="75.000" y="150.000" width="23.100" height="23.100" fill="rgb(221,74,31)"/>
<rect x="100.000" y="150.000" width="23.100" height="23.100" fill="rgb(17,51,104)"/>
<rect x="125.000" y="150.000" width="23.100" height="23.100" fill="rgb(12,31,75)"/>
<rect x="150.000" y="150.000" width="23.100" height="23.100" fill="rgb(14,38,87)"/>
<rect x="175.000" y="150.000" width="23.100" height="23.100" fill="rgb(23,79,146)"/>
<rect x="200.000" y="150.000" width="23.100" height="23.100" fill="rgb(221,75,31)"/>
<rect x="225.000" y="150.000" width="23.100" height="23.100" fill="rgb(14,40,89)"/>
<rect x="250.000" y="150.000" width="23.100" height="23.100" fill="rgb(12,31,76)"/>
<rect x="275.000" y="150.000" width="23.100" height="23.100" fill="rgb(12,28,71)"/>
<rect x="0.000" y="175.000" width="23.100" height="23.100" fill="rgb(10,20,61)"/>
<rect x="25.000" y="175.000" width="23.100" height="23.100" fill="rgb(12,30,75)"/>
<rect x="50.000" y="175.000" width="23.100" height="23.100" fill="rgb(27,97,171)"/>
<rect x="75.000" y="175.000" width="23.100" height="23.100" fill="rgb(222,89,32)"/>
<rect x="100.000" y="175.000" width="23.100" height="23.100" fill="rgb(12,29,73)"/>
<rect x="125.000" y="175.000" width="23.100" height="23.100" fill="rgb(16,49,102)"/>
<rect x="150.000" y="175.000" width="23.100" height="23.100" fill="rgb(14,39,88)"/>
<rect x="175.000" y="175.000" width="23.100" height="23.100" fill="rgb(80,133,152)"/>
<rect x="200.000" y="175.000" width="23.100" height="23.100" fill="rgb(227,151,37)"/>
<rect x="225.000" y="175.000" width="23.100" height="23.100" fill="rgb(11,26,69)"/>
<rect x="250.000" y="175.000" width="23.100" height="23.100" fill="rgb(12,27,71)"/>
<rect x="275.000" y="175.000" width="23.100" height="23.100" fill="rgb(13,32,77)"/>
<rect x="0.000" y="200.000" width="23.100" height="23.100" fill="rgb(14,38,85)"/>
<rect x="25.000" y="200.000" width="23.100" height="23.100" fill="rgb(13,32,78)"/>
<rect x="50.000" y="200.000" width="23.100" height="23.100" fill="rgb(21,67,128)"/>
<rect x="75.000" y="200.000" width="23.100" height="23.100" fill="rgb(223,100,33)"/>
<rect x="100.000" y="200.000" width="23.100" height="23.100" fill="rgb(19,60,117)"/>
<rect x="125.000" y="200.000" width="23.100" height="23.100" fill="rgb(14,36,84)"/>
<rect x="150.000" y="200.000" width="23.100" height="23.100" fill="rgb(14,38,86)"/>
<rect x="175.000" y="200.000" width="23.100" height="23.100" fill="rgb(226,145,36)"/>
<rect x="200.000" y="200.000" width="23.100" height="23.100" fill="rgb(173,174,83)"/>
<rect x="225.000" y="200.000" width="23.100" height="23.100" fill="rgb(16,45,96)"/>
<rect x="250.000" y="200.000" width="23.100" height="23.100" fill="rgb(16,45,96)"/>
<rect x="275.000" y="200.000" width="23.100" height="23.100" fill="rgb(17,51,105)"/>
<rect x="0.000" y="225.000" width="23.100" height="23.100" fill="rgb(11,23,64)"/>
<rect x="25.000" y="225.000" width="23.100" height="23.100" fill="rgb(17,50,104)"/>
<rect x="50.000" y="225.000" width="23.100" height="23.100" fill="rgb(15,41,90)"/>
<rect x="75.000" y="225.000" width="23.100" height="23.100" fill="rgb(117,149,125)"/>
<rect x="100.000" y="225.000" width="23.100" height="23.100" fill="rgb(223,96,33)"/>
<rect x="125.000" y="225.000" width="23.100" height="23.100" fill="rgb(230,197,40)"/>
<rect x="150.000" y="225.000" width="23.100" height="23.100" fill="rgb(227,157,37)"/>
<rect x="175.000" y="225.000" width="23.100" height="23.100" fill="rgb(223,107,33)"/>
<rect x="200.000" y="225.000" width="23.100" height="23.100" fill="rgb(22,72,135)"/>
<rect x="225.000" y="225.000" width="23.100" height="23.100" fill="rgb(16,46,98)"/>
<rect x="250.000" y="225.000" width="23.100" height="23.100" fill="rgb(11,23,64)"/>
<rect x="275.000" y="225.000" width="23.100" height="23.100" fill="rgb(13,34,80)"/>
<rect x="0.000" y="250.000" width="23.100" height="23.100" fill="rgb(16,47,98)"/>
<rect x="25.000" y="250.000" width="23.100" height="23.100" fill="rgb(14,36,83)"/>
<rect x="50.000" y="250.000" width="23.100" height="23.100" fill="rgb(12,31,75)"/>
<rect x="75.000" y="250.000" width="23.100" height="23.100" fill="rgb(12,29,72)"/>
<rect x="100.000" y="250.000" width="23.100" height="23.100" fill="rgb(16,49,102)"/>
<rect x="125.000" y="250.000" width="23.100" height="23.100" fill="rgb(64,125,164)"/>
<rect x="150.000" y="250.000" width="23.100" height="23.100" fill="rgb(75,130,156)"/>
<rect x="175.000" y="250.000" width="23.100" height="23.100" fill="rgb(12,31,76)"/>
<rect x="200.000" y="250.000" width="23.100" height="23.100" fill="rgb(15,42,91)"/>
<rect x="225.000" y="250.000" width="23.100" height="23.100" fill="rgb(15,42,92)"/>
<rect x="250.000" y="250.000" width="23.100" height="23.100" fill="rgb(14,40,89)"/>
<rect x="275.000" y="250.000" width="23.100" height="23.100" fill="rgb(14,37,84)"/>
<rect x="0.000" y="275.000" width="23.100" height="23.100" fill="rgb(14,38,86)"/>
<rect x="25.000" y="275.000" width="23.100" height="23.100" fill="rgb(11,25,67)"/>
<rect x="50.000" y="275.000" width="23.100" height="23.100" fill="rgb(15,44,95)"/>
<rect x="75.000" y="275.000" width="23.100" height="23.100" fill="rgb(12,30,75)"/>
<rect x="100.000" y="275.000" width="23.100" height="23.100" fill="rgb(10,21,62)"/>
<rect x="125.000" y="275.000" width="23.100" height="23.100" fill="rgb(17,50,104)"/>
<rect x="150.000" y="275.000" width="23.100" height="23.100" fill="rgb(13,32,78)"/>
<rect x="175.000" y="275.000" width="23.100" height="23.100" fill="rgb(12,29,73)"/>
<rect x="200.000" y="275.000" width="23.100" height="23.100" fill="rgb(12,27,71)"/>
<rect x="225.000" y="275.000" width="23.100" height="23.100" fill="rgb(11,26,68)"/>
<rect x="250.000" y="275.000" width="23.100" height="23.100" fill="rgb(10,22,63)"/>
<rect x="275.000" y="275.000" width="23.100" height="23.100" fill="rgb(12,30,75)"/>
</svg>